<svg width="72" height="72" fill="none" xmlns="http://www.w3.org/2000/svg"><path fill-rule="evenodd" clip-rule="evenodd" d="m36 23.98.3.02c.58 0 1.14 0 1.7-.02V39h28.71A5.3 5.3 0 0 0 72 33.75v-7.5A5.3 5.3 0 0 0 66.71 21H54.58C63.05 17.7 67 12.33 67 8.07 67 4.35 64.05 0 55.73 0 45 0 38.91 7.61 36 14.59 33.09 7.61 27 0 16.27 0 7.95 0 5 4.34 5 8.07 5 12.33 8.95 17.7 17.42 21H5.3A5.3 5.3 0 0 0 0 26.25v7.5A5.3 5.3 0 0 0 5.29 39H34V23.98a70.17 70.17 0 0 0 2 0Zm3.17-4.5c1.39-4.92 5.56-15.03 16.56-15.03 3.22 0 6.67.95 6.67 3.61 0 1.8-1.56 4.6-5.93 7.1-3.15 1.81-8.62 3.93-17.3 4.32ZM34 44H6v22.84C6 69.67 8.4 72 11.3 72H34V44Zm32 22.84V44H38v28h22.7c2.9 0 5.3-2.33 5.3-5.16ZM16.27 4.45c-3.22 0-6.67.95-6.67 3.62 0 3.78 6.86 10.69 23.22 11.42-1.38-4.94-5.55-15.04-16.55-15.04Z" fill="#FDD6BA"/></svg>