<svg width="73" height="72" fill="none" xmlns="http://www.w3.org/2000/svg"><path fill-rule="evenodd" clip-rule="evenodd" d="M59.05 13.1c7.26 7.37 11.79 16.64 12.76 26.13.99 9.65-1.83 18.37-7.92 24.54C58.6 69.14 51.41 72 43.37 72c-1.21 0-2.44-.07-3.69-.2-9.35-.98-18.5-5.57-25.76-12.94C-1.19 43.54-3.36 20.81 9.08 8.2 21.5-4.43 43.93-2.2 59.05 13.1ZM33.53 40.04c5.83 1.62 11.2 3.13 16.15 6.97 3.88 3 6.65 6.83 9.45 10.7 1.28 1.77 2.58 3.56 4 5.28-1.64-14.33-8.75-26.64-23.1-30.87l-.67-.2c-6.28-1.84-12.02-3.52-17.24-7.87-3.36-2.8-5.83-6.28-8.32-9.78-1.27-1.79-2.55-3.58-3.95-5.3 1.7 14.56 9 26.98 23.68 31.07Z" fill="#FDD6BA"/></svg>