<svg width="236" height="26" fill="none" xmlns="http://www.w3.org/2000/svg"><path fill-rule="evenodd" clip-rule="evenodd" d="M75.65 23.3c0 .51-.25.76-.76.76h-9a.75.75 0 0 1-.53-.19.7.7 0 0 1-.2-.53c0-.2.04-.36.13-.48.1-.12.24-.22.44-.3l.7-.21a.73.73 0 0 0 .4-.32c.1-.15.15-.37.15-.66v-9.55a.64.64 0 0 0-.11-.4 1 1 0 0 0-.43-.28l-.94-.32a1.52 1.52 0 0 1-.54-.38.79.79 0 0 1-.16-.5c0-.2.06-.37.2-.5l.05-.04c.13-.1.3-.15.51-.15H67v-.1c-.04-.19-.12-.37-.24-.55l-.55-.8a4.18 4.18 0 0 1-.8-2.6c0-1.44.49-2.6 1.47-3.46.97-.86 2.36-1.3 4.17-1.3 1.16 0 2.13.2 2.9.57a3.84 3.84 0 0 1 2.29 3.54c0 .86-.23 1.52-.68 1.95a2.4 2.4 0 0 1-1.74.66c-.78 0-1.41-.26-1.9-.77a2.82 2.82 0 0 1-.7-2.01V2.9c0-.39-.08-.67-.24-.85-.15-.19-.38-.28-.7-.28-.4 0-.7.14-.91.42-.2.27-.31.67-.31 1.19 0 .53.12 1.02.37 1.48.24.47.54.9.9 1.3s.72.79 1.08 1.16c.36.37.66.73.9 1.09l.07.1a2 2 0 0 1 .27.65l.01.08h2.41c.25 0 .45.06.58.16.14.1.2.27.2.49 0 .33-.13.6-.42.8-.28.22-.73.32-1.33.32h-1.16v10.3c0 .3.05.55.14.71.09.17.24.27.45.3l1.4.21a.9.9 0 0 1 .55.24c.12.13.18.3.18.52Zm-32.1.38c-.97.48-2.11.71-3.41.71-1.38 0-2.62-.29-3.71-.87a6.4 6.4 0 0 1-2.58-2.54 8.05 8.05 0 0 1-.95-4.04c0-1.53.33-2.9.99-4.1a7.38 7.38 0 0 1 2.74-2.87 7.87 7.87 0 0 1 4.1-1.05c1.35 0 2.47.2 3.4.6.91.4 1.61.93 2.1 1.61.48.68.72 1.44.72 2.27a2.8 2.8 0 0 1-.76 2.08c-.5.5-1.2.75-2.06.75-.9 0-1.57-.26-2.03-.77a3.03 3.03 0 0 1-.7-2.1V12.3c0-.54-.09-.95-.29-1.23a.96.96 0 0 0-.83-.41c-.36 0-.68.15-.97.44-.28.29-.5.73-.66 1.31-.16.59-.24 1.3-.24 2.17 0 1.23.18 2.27.54 3.1a3.8 3.8 0 0 0 3.64 2.51c.81 0 1.49-.11 2.03-.35.54-.24.96-.64 1.25-1.2.17-.15.3-.25.39-.3.09-.04.18-.06.27-.06.1.01.2.06.26.16.08.09.1.24.1.43a5.7 5.7 0 0 1-3.33 4.81Zm16.58-.33a8.7 8.7 0 0 1-4.27 1.01 8.46 8.46 0 0 1-4.14-.98 7.07 7.07 0 0 1-2.78-2.72c-.67-1.16-1-2.5-1-4.02a7.5 7.5 0 0 1 3.93-6.7 8.57 8.57 0 0 1 4.24-1.02c1.59 0 2.97.33 4.16 1a7.1 7.1 0 0 1 2.77 2.74c.66 1.17.99 2.52.99 4.05 0 1.45-.34 2.76-1.03 3.9a7.46 7.46 0 0 1-2.87 2.74Zm-3.03-.7c-.33.06-.66-.09-.98-.45a5.51 5.51 0 0 1-.92-1.84c-.28-.86-.56-1.99-.82-3.39a25.7 25.7 0 0 1-.42-3.45c-.03-.9.03-1.59.2-2.05.16-.46.4-.73.74-.81.34-.07.67.08.99.45.32.36.63.97.92 1.83.3.86.57 1.99.83 3.39.26 1.4.4 2.55.43 3.46.03.91-.04 1.6-.2 2.06-.18.46-.43.73-.77.8Zm29.16 1.41c.51 0 .77-.25.77-.76 0-.22-.06-.39-.18-.52a.9.9 0 0 0-.56-.24l-1.4-.21a.59.59 0 0 1-.45-.3c-.09-.16-.13-.4-.13-.71v-10.3h1.15c.61 0 1.06-.1 1.34-.31s.42-.48.42-.81c0-.22-.06-.38-.2-.49a.93.93 0 0 0-.58-.16h-2.41L84 9.17a2 2 0 0 0-.26-.64l-.07-.11a8.29 8.29 0 0 0-.9-1.1c-.36-.36-.72-.75-1.08-1.15-.36-.4-.66-.83-.9-1.3a3.14 3.14 0 0 1-.37-1.48c0-.52.1-.92.3-1.2.21-.27.52-.4.92-.4.31 0 .55.08.7.27.15.18.23.46.23.85v1.47c0 .84.24 1.5.72 2.01.47.51 1.1.77 1.89.77.7 0 1.28-.22 1.73-.66.45-.43.68-1.09.68-1.96a3.84 3.84 0 0 0-2.3-3.53 6.57 6.57 0 0 0-2.88-.57c-1.8 0-3.2.44-4.18 1.3a4.4 4.4 0 0 0-1.46 3.46 4.18 4.18 0 0 0 .8 2.6l.55.8c.12.18.2.36.23.56v.1h-1.42c-.21 0-.38.04-.51.14l-.05.04a.64.64 0 0 0-.2.5c0 .19.05.36.16.5.1.13.28.26.53.38l.95.32a1 1 0 0 1 .42.29c.08.1.12.23.12.39v9.55c0 .29-.05.5-.15.66a.73.73 0 0 1-.4.32l-.7.21a.98.98 0 0 0-.44.3.77.77 0 0 0-.14.48c0 .23.07.4.2.53.14.13.32.2.53.2h9Zm12.76-.48a7.9 7.9 0 0 1-3.65.81 8.19 8.19 0 0 1-4-.95 6.82 6.82 0 0 1-2.7-2.66 7.89 7.89 0 0 1-.97-3.96c0-1.57.3-2.95.93-4.14a6.68 6.68 0 0 1 2.72-2.76c1.18-.67 2.6-1 4.27-1 1.41 0 2.63.28 3.65.84a5.92 5.92 0 0 1 2.35 2.26c.55.96.83 2.02.83 3.18 0 .51-.14.91-.41 1.2l-.07.07c-.26.25-.63.37-1.1.37H93.4l.02.08c.2.9.54 1.63 1.01 2.18.82.93 1.9 1.4 3.26 1.4.87 0 1.64-.2 2.31-.6.67-.4 1.12-.95 1.34-1.65.14-.15.25-.24.36-.3.1-.04.19-.07.26-.07.11 0 .2.05.28.13.08.1.11.24.11.45 0 1.08-.29 2.07-.88 2.97a6.3 6.3 0 0 1-2.46 2.15Zm-5.78-8.06a12.97 12.97 0 0 1 .2-3.24c.16-.6.36-1.02.6-1.27.24-.24.5-.37.8-.37.38 0 .73.33 1.06.98.33.65.5 1.73.5 3.24 0 .46-.2.7-.62.7h-2.53v-.04Zm21.37 8.06a7.9 7.9 0 0 1-3.66.81 8.18 8.18 0 0 1-4-.95 6.82 6.82 0 0 1-2.7-2.66 7.9 7.9 0 0 1-.97-3.96c0-1.57.31-2.95.94-4.14a6.68 6.68 0 0 1 2.7-2.76c1.2-.67 2.62-1 4.28-1 1.41 0 2.63.28 3.65.84a5.92 5.92 0 0 1 2.36 2.26c.54.96.82 2.02.82 3.18 0 .51-.14.91-.41 1.2l-.06.07c-.27.25-.64.37-1.11.37H109l.01.08c.2.9.54 1.63 1.02 2.18.81.93 1.9 1.4 3.25 1.4.87 0 1.64-.2 2.31-.6.67-.4 1.12-.95 1.35-1.65.13-.15.24-.24.35-.3.1-.04.19-.07.27-.07.1 0 .2.05.27.13.08.1.12.24.12.45 0 1.08-.3 2.07-.88 2.97-.6.9-1.41 1.61-2.46 2.15Zm-5.78-8.06a10.33 10.33 0 0 1 .2-3.24c.15-.6.35-1.02.59-1.27.24-.24.5-.37.8-.37.38 0 .73.33 1.06.98.33.65.5 1.73.5 3.24 0 .46-.2.7-.62.7h-2.53v-.04Zm19.67 8.34c-.14.14-.33.2-.6.2h-8.15a.77.77 0 0 1-.56-.2.73.73 0 0 1-.2-.54c0-.18.04-.32.12-.44.08-.11.2-.22.34-.32l.37-.15a.55.55 0 0 0 .3-.31c.05-.15.07-.38.07-.71v-8.4c0-.26-.02-.45-.08-.57a.62.62 0 0 0-.3-.27l-.43-.05a1.04 1.04 0 0 1-.33-.28.64.64 0 0 1-.11-.38c0-.18.06-.34.16-.47.11-.14.3-.26.56-.36l4.63-1.34c.27-.1.5-.19.68-.23.19-.04.34-.07.47-.07.19 0 .33.07.42.2l.03.05c.08.14.13.36.16.66l.12 2.57.03-.1c.05-.17.11-.34.18-.5.4-1 .92-1.73 1.57-2.2a3.53 3.53 0 0 1 2.14-.73c.93 0 1.65.32 2.15.95.5.62.75 1.58.75 2.86 0 1.26-.26 2.2-.78 2.79-.52.6-1.2.9-2.02.9-.8 0-1.4-.21-1.79-.62-.38-.4-.59-.99-.6-1.74l-.03-.66a1.25 1.25 0 0 0-.14-.6c-.09-.14-.23-.2-.43-.2-.2 0-.36.1-.5.3-.16.2-.27.51-.34.93-.08.42-.12.96-.12 1.6v5.82c0 .31.05.56.15.74.1.18.25.3.45.34l1.23.25c.23.03.39.12.49.25.1.14.14.3.14.49 0 .22-.06.4-.2.54Zm13.03.5a8.7 8.7 0 0 0 4.26-1 7.47 7.47 0 0 0 2.87-2.74 7.46 7.46 0 0 0 1.04-3.91c0-1.53-.33-2.88-1-4.05a7.11 7.11 0 0 0-2.77-2.74 8.39 8.39 0 0 0-4.16-1c-1.6 0-3 .35-4.23 1.03a7.5 7.5 0 0 0-3.93 6.7c0 1.51.33 2.85 1 4a7.06 7.06 0 0 0 2.77 2.73c1.2.65 2.58.98 4.15.98Zm.25-2.16c.32.36.65.5.99.44.34-.06.59-.33.76-.8.16-.45.24-1.14.2-2.05-.02-.9-.16-2.06-.42-3.46s-.54-2.53-.83-3.39c-.3-.86-.6-1.47-.92-1.83-.33-.37-.65-.52-1-.45-.33.08-.58.35-.74.8a5.87 5.87 0 0 0-.2 2.06c.04.9.18 2.05.43 3.45.26 1.4.53 2.53.82 3.4.29.85.6 1.46.91 1.83Zm20.84 2.2c.91 0 1.66-.17 2.25-.5a3.6 3.6 0 0 0 1.31-1.2c.29-.47.43-.9.43-1.28 0-.17-.03-.3-.1-.41a.32.32 0 0 0-.29-.17c-.05 0-.1.01-.14.03a.33.33 0 0 0-.12.1c-.05.2-.14.34-.25.42a.65.65 0 0 1-.37.11c-.18 0-.32-.06-.41-.19a.84.84 0 0 1-.14-.5v-7.3c0-1.46-.5-2.59-1.48-3.39-.98-.8-2.52-1.2-4.62-1.2-1.63 0-2.99.2-4.08.62-1.1.4-1.91.92-2.46 1.56a2.96 2.96 0 0 0-.82 1.94c0 .7.2 1.24.6 1.61.41.37 1 .55 1.78.55.94 0 1.69-.25 2.23-.76.54-.52.81-1.18.81-2V11.2c0-.31.1-.55.29-.72.19-.17.43-.26.7-.26.31 0 .55.12.73.34.18.23.27.53.27.92v4.82l-.09-.02a5.44 5.44 0 0 0-.9-.09h-.18c-2.34 0-4.08.4-5.22 1.19a3.81 3.81 0 0 0-1.72 3.32c0 1.08.39 1.97 1.18 2.66.78.7 1.83 1.04 3.13 1.04.98 0 1.9-.2 2.74-.6.64-.3 1.16-.7 1.55-1.19l.02-.03.03.08c.12.36.35.68.69.96l.1.08c.6.47 1.45.7 2.55.7Zm-5.61-3.12c.26.36.61.54 1.05.54h.1c.18-.02.35-.07.53-.16l.05-.03v-4.24l-.08-.03c-.18-.05-.4-.07-.65-.07-.42 0-.76.2-1.02.6-.26.39-.38.97-.38 1.74 0 .74.13 1.3.4 1.65Zm17.1 3.16c1.94 0 3.42-.44 4.45-1.33a4.58 4.58 0 0 0 1.55-3.66 5.5 5.5 0 0 0-.52-2.46 4.77 4.77 0 0 0-1.83-1.88c-.87-.54-2.09-1.06-3.66-1.54a6.65 6.65 0 0 1-1.37-.57c-.32-.2-.54-.4-.66-.62a1.47 1.47 0 0 1-.17-.71c0-.38.13-.68.4-.91.27-.23.68-.35 1.2-.35.75 0 1.44.25 2.1.75.66.5 1.39 1.34 2.18 2.54.2.25.41.44.62.55.2.12.4.16.59.11a.58.58 0 0 0 .42-.45c.05-.24.04-.58-.03-1.02l-.43-3.04a1.28 1.28 0 0 0-.24-.68.6.6 0 0 0-.47-.2c-.18 0-.4.06-.66.19l-.77.37c-.26.12-.45.19-.58.19-.12 0-.3-.07-.53-.2a5.27 5.27 0 0 0-2.63-.6c-1.12 0-2.13.2-3.03.62a4.67 4.67 0 0 0-2.9 4.45c.01.92.2 1.73.6 2.42.38.7.97 1.3 1.76 1.79.8.5 1.8.9 3 1.2.78.21 1.38.42 1.8.64.42.21.7.45.86.7.16.26.24.54.24.84 0 .41-.14.75-.4 1.01-.28.27-.7.4-1.25.4-.52 0-1.02-.11-1.49-.34a4.9 4.9 0 0 1-1.46-1.16c-.5-.56-1.06-1.31-1.68-2.27-.18-.25-.39-.43-.62-.53a.84.84 0 0 0-.71.02c-.23.09-.38.27-.44.56-.07.29-.05.64.05 1.06l.5 3.29c.08.33.19.55.33.66.14.1.3.16.45.16.19 0 .41-.06.68-.18l.8-.36c.27-.12.48-.18.64-.18.17 0 .38.06.65.18a6.08 6.08 0 0 0 2.66.55Zm15.45-.62c-.71.38-1.56.57-2.54.57-1.65 0-2.9-.4-3.72-1.2-.84-.8-1.25-2.07-1.25-3.8v-7.47c0-.24-.02-.41-.07-.53-.04-.12-.15-.22-.32-.3l-.77-.25c-.18-.09-.3-.2-.36-.32a1.2 1.2 0 0 1-.08-.47c0-.23.08-.42.25-.57a.86.86 0 0 1 .6-.23h.8c.1 0 .2-.03.3-.11.12-.08.26-.23.45-.46l3.01-2.53c.22-.27.44-.47.65-.6.22-.14.44-.21.66-.21.25 0 .44.07.58.23l.05.05c.11.16.16.38.16.68v2.95h3.41c.24 0 .43.06.56.16.13.1.2.27.2.49a1 1 0 0 1-.42.8l-.06.04a2.2 2.2 0 0 1-1.24.28h-2.44v7.54c0 .83.13 1.44.41 1.83.28.4.68.6 1.22.6.22 0 .44-.05.63-.15.2-.1.37-.23.53-.39.16-.16.3-.34.45-.53.14-.2.28-.4.4-.6.11-.04.21-.02.3.06.07.08.1.25.1.5-.08.9-.33 1.68-.74 2.36-.42.68-.99 1.2-1.7 1.58Zm10.68.57a7.9 7.9 0 0 0 3.65-.8 6.28 6.28 0 0 0 2.46-2.16c.59-.9.88-1.89.88-2.97 0-.2-.04-.36-.11-.45a.35.35 0 0 0-.28-.13.64.64 0 0 0-.27.08c-.1.05-.22.14-.35.29-.23.7-.68 1.25-1.34 1.65-.67.4-1.44.6-2.31.6a4.12 4.12 0 0 1-3.26-1.4 4.8 4.8 0 0 1-1.01-2.18l-.02-.08h7.45c.47 0 .84-.12 1.11-.37l.06-.07c.28-.29.41-.69.41-1.2 0-1.16-.27-2.22-.82-3.18a5.92 5.92 0 0 0-2.36-2.26 7.53 7.53 0 0 0-3.65-.84c-1.66 0-3.08.33-4.27 1a6.68 6.68 0 0 0-2.71 2.76 8.75 8.75 0 0 0-.94 4.14c0 1.5.32 2.82.97 3.96a6.82 6.82 0 0 0 2.7 2.66c1.15.64 2.49.95 4 .95Zm-2.15-9.66c0 .27 0 .53.02.79v.03h2.54c.4 0 .61-.23.61-.7 0-1.5-.16-2.58-.5-3.23-.32-.65-.68-.98-1.06-.98-.3 0-.56.13-.8.37-.24.25-.43.67-.59 1.27-.15.6-.22 1.41-.22 2.45Zm19.1 9.33c.26 0 .46-.06.6-.2.13-.14.2-.32.2-.54a.82.82 0 0 0-.15-.49c-.1-.13-.26-.22-.49-.25l-1.22-.25a.65.65 0 0 1-.46-.34c-.1-.18-.14-.43-.14-.74v-5.81c0-.65.03-1.19.11-1.6.08-.43.19-.74.34-.94.14-.2.31-.3.5-.3.2 0 .34.06.43.2.09.15.14.35.15.6l.01.66c.03.75.23 1.33.62 1.74.38.4.98.61 1.78.61.83 0 1.5-.3 2.02-.9.52-.59.78-1.52.78-2.78 0-1.28-.25-2.24-.75-2.86a2.59 2.59 0 0 0-2.15-.95c-.77 0-1.48.24-2.13.72a4.92 4.92 0 0 0-1.58 2.2l-.18.52-.02.1-.13-2.58a1.8 1.8 0 0 0-.16-.66l-.03-.05c-.09-.13-.23-.2-.41-.2-.13 0-.29.03-.47.07a4.9 4.9 0 0 0-.69.23l-4.63 1.34c-.26.1-.44.22-.55.36-.11.13-.16.29-.16.47 0 .15.03.28.1.38.07.1.18.19.33.28l.43.05c.14.06.24.15.3.27.06.12.09.3.09.57v8.4c0 .33-.03.56-.08.7a.55.55 0 0 1-.3.32l-.37.15c-.14.1-.25.2-.33.32a.74.74 0 0 0-.13.44c0 .23.07.41.2.55.14.13.33.2.57.2h8.15Zm17.16-.95c-1.03.89-2.51 1.33-4.45 1.33a6.08 6.08 0 0 1-2.66-.54 1.66 1.66 0 0 0-.65-.18c-.16 0-.37.06-.64.18l-.8.36c-.27.12-.5.18-.68.18a.73.73 0 0 1-.45-.16c-.14-.11-.25-.33-.33-.66l-.5-3.3a2.4 2.4 0 0 1-.05-1.05c.06-.29.21-.47.44-.56a.84.84 0 0 1 .7-.02c.24.1.45.28.63.53.62.96 1.18 1.71 1.68 2.27.5.55.99.94 1.46 1.16.47.23.97.34 1.5.34.55 0 .96-.13 1.23-.4.27-.26.4-.6.4-1 0-.31-.07-.6-.23-.85a2.12 2.12 0 0 0-.86-.7 9.44 9.44 0 0 0-1.8-.64c-1.2-.3-2.2-.7-3-1.2-.8-.5-1.38-1.1-1.77-1.79-.39-.7-.58-1.5-.58-2.43a4.67 4.67 0 0 1 2.9-4.44c.9-.41 1.9-.62 3.02-.62a5.66 5.66 0 0 1 2.63.6c.23.13.41.2.53.2.13 0 .32-.07.58-.2l.77-.36c.26-.13.48-.19.66-.19.2 0 .35.07.47.2s.2.36.24.68l.43 3.04c.07.44.08.78.03 1.02a.57.57 0 0 1-.42.45.8.8 0 0 1-.6-.1c-.2-.12-.4-.3-.61-.56-.8-1.2-1.52-2.05-2.18-2.54a3.42 3.42 0 0 0-2.1-.75c-.52 0-.93.12-1.2.35-.27.23-.4.53-.4.9 0 .26.06.5.18.72.11.22.33.43.66.62.31.2.77.38 1.36.57 1.57.48 2.8 1 3.66 1.54a4.77 4.77 0 0 1 1.83 1.88c.35.7.52 1.53.52 2.46 0 1.55-.52 2.76-1.55 3.66Z" fill="#333D4B"/><path fill-rule="evenodd" clip-rule="evenodd" d="M14.39 4.45C10.87.94 5.67.43 2.78 3.32c-2.9 2.9-2.39 8.1 1.12 11.62a10.6 10.6 0 0 0 3.15 2.16 11.6 11.6 0 0 1 3.07-5.97c-.54-.2-1.09-.35-1.66-.51-3.41-.94-5.1-3.78-5.5-7.12.32.4.62.8.92 1.22.57.8 1.15 1.6 1.93 2.23 1.2 1 2.54 1.38 3.99 1.8l.17.05c.69.2 1.28.5 1.83.84a11.35 11.35 0 0 1 4.75-2.04 10.57 10.57 0 0 0-2.16-3.15ZM8.45 17.93c.22-2.17 1.27-4.3 2.96-5.98 3.51-3.51 8.72-4.02 11.61-1.13 2.9 2.9 2.39 8.1-1.12 11.62a10.03 10.03 0 0 1-6.85 3 6.61 6.61 0 0 1-4.76-1.88 6.77 6.77 0 0 1-1.84-5.63Zm5.14 1.79c1.15-.88 2.4-1.23 3.75-1.6 3.41-.94 5.1-3.78 5.5-7.12-.32.4-.62.8-.91 1.21-.58.8-1.16 1.6-1.94 2.25-1.21 1-2.54 1.38-4 1.8l-.16.05c-3.34.97-4.99 3.79-5.37 7.07.33-.4.63-.8.93-1.21a11.4 11.4 0 0 1 2.2-2.45Z" fill="#0E8784"/></svg>