<svg width="163" height="18" fill="none" xmlns="http://www.w3.org/2000/svg"><path fill-rule="evenodd" clip-rule="evenodd" d="M52.25 16.13c0 .35-.18.53-.53.53h-6.21a.51.51 0 0 1-.37-.13.48.48 0 0 1-.14-.37c0-.14.03-.25.1-.34a.67.67 0 0 1 .3-.2l.48-.15a.5.5 0 0 0 .28-.22c.07-.1.1-.26.1-.46V8.18c0-.1-.02-.2-.08-.27a.7.7 0 0 0-.29-.2l-.65-.22c-.18-.08-.3-.17-.37-.27a.55.55 0 0 1-.12-.34c0-.14.05-.25.14-.34l.04-.03c.1-.07.2-.1.35-.1h.99v-.07a.93.93 0 0 0-.17-.39l-.38-.55a2.9 2.9 0 0 1-.55-1.8c0-1 .34-1.8 1.01-2.4a4.2 4.2 0 0 1 2.88-.9c.8 0 1.47.14 2 .4s.93.6 1.2 1.03c.25.43.38.9.38 1.42 0 .6-.15 1.05-.46 1.35-.31.3-.71.45-1.2.45a1.7 1.7 0 0 1-1.3-.52c-.34-.35-.5-.82-.5-1.4V2.01c0-.26-.06-.46-.16-.59-.1-.12-.27-.19-.48-.19-.28 0-.5.1-.63.3-.15.18-.22.46-.22.81 0 .37.09.71.25 1.03.17.32.38.62.63.9l.74.8c.25.26.46.51.63.76l.05.07c.09.15.15.3.18.45v.06h1.68c.17 0 .3.03.4.1.09.08.14.2.14.34 0 .23-.1.42-.3.56-.2.15-.5.22-.92.22h-.8v7.13c0 .21.03.38.1.5a.4.4 0 0 0 .3.2l.97.15c.18.02.3.08.39.16.08.1.12.21.12.36Zm-22.16.27c-.68.32-1.47.49-2.37.49-.95 0-1.8-.2-2.56-.6a4.42 4.42 0 0 1-1.78-1.76 5.59 5.59 0 0 1-.66-2.8c0-1.06.23-2.01.68-2.85a5.1 5.1 0 0 1 4.74-2.7c.92 0 1.7.14 2.33.41.64.27 1.12.65 1.46 1.12.33.46.5.99.5 1.57 0 .6-.18 1.09-.53 1.44-.35.34-.82.52-1.42.52-.62 0-1.08-.18-1.4-.54a2.1 2.1 0 0 1-.48-1.46v-.73c0-.37-.07-.65-.2-.84a.66.66 0 0 0-.58-.3c-.25 0-.47.11-.67.31-.2.2-.35.5-.46.91-.1.4-.16.9-.16 1.5 0 .86.12 1.57.38 2.15a2.62 2.62 0 0 0 2.52 1.74c.55 0 1.01-.08 1.39-.24.37-.17.66-.44.86-.83.12-.11.2-.18.27-.21a.43.43 0 0 1 .18-.05c.08.01.14.05.19.11.05.07.07.17.06.3a3.96 3.96 0 0 1-2.3 3.34Zm11.44-.23a6 6 0 0 1-2.95.7 5.83 5.83 0 0 1-2.86-.69 4.89 4.89 0 0 1-1.92-1.88 5.5 5.5 0 0 1-.69-2.78 5.2 5.2 0 0 1 2.72-4.63 5.9 5.9 0 0 1 2.92-.71c1.1 0 2.06.23 2.87.68.82.46 1.46 1.1 1.92 1.9.46.81.68 1.75.68 2.8a5.17 5.17 0 0 1-2.7 4.6Zm-2.09-.5c-.23.05-.46-.05-.68-.3a3.82 3.82 0 0 1-.63-1.27c-.2-.6-.39-1.38-.57-2.35-.17-.97-.27-1.77-.3-2.4-.02-.62.03-1.09.14-1.41.12-.32.29-.5.52-.56.23-.05.46.06.68.3.22.26.43.68.64 1.28.2.6.4 1.38.57 2.34.18.97.28 1.77.3 2.4.02.63-.03 1.1-.15 1.43-.11.32-.29.5-.52.55Zm20.14.99c.35 0 .53-.18.53-.53a.5.5 0 0 0-.13-.36.62.62 0 0 0-.38-.16l-.97-.15a.4.4 0 0 1-.3-.2c-.07-.12-.1-.29-.1-.5V7.63h.8c.42 0 .73-.07.92-.22.2-.14.3-.33.3-.56 0-.15-.05-.26-.15-.33a.64.64 0 0 0-.4-.11h-1.66l-.01-.06c-.04-.15-.1-.3-.19-.45l-.05-.07c-.16-.25-.37-.5-.62-.76-.25-.25-.5-.52-.74-.8a4.52 4.52 0 0 1-.63-.9 2.18 2.18 0 0 1-.25-1.03c0-.35.07-.63.21-.82.15-.19.36-.29.63-.29.22 0 .38.07.49.2.1.12.15.32.15.58v1.02c0 .58.17 1.05.5 1.4.33.35.77.52 1.3.52.5 0 .9-.15 1.2-.45.32-.3.47-.75.47-1.35A2.66 2.66 0 0 0 58.92.7a4.53 4.53 0 0 0-2-.4c-1.24 0-2.2.3-2.88.9-.67.6-1.01 1.4-1.01 2.4a2.9 2.9 0 0 0 .55 1.8l.38.55c.09.13.14.26.16.39v.07h-.98a.57.57 0 0 0-.35.1l-.04.03c-.1.09-.14.2-.14.34 0 .13.04.25.11.34.08.1.2.19.37.27l.66.22a.7.7 0 0 1 .3.2c.04.07.07.16.07.27v6.61c0 .2-.03.36-.1.46a.5.5 0 0 1-.28.22l-.49.15a.67.67 0 0 0-.3.2c-.06.09-.1.2-.1.34 0 .16.06.28.15.37.1.09.22.13.37.13h6.2Zm8.81-.33c-.72.37-1.57.56-2.52.56a5.64 5.64 0 0 1-2.77-.66 4.72 4.72 0 0 1-1.86-1.84 5.47 5.47 0 0 1-.67-2.74c0-1.1.22-2.05.65-2.87a4.62 4.62 0 0 1 1.87-1.92c.82-.45 1.8-.68 2.95-.68.98 0 1.82.2 2.52.58.7.38 1.25.9 1.63 1.56.38.66.57 1.4.57 2.2 0 .36-.1.63-.28.84l-.05.04c-.18.17-.44.26-.76.26h-5.15l.01.05c.14.63.37 1.13.7 1.51.56.65 1.31.97 2.25.97.6 0 1.13-.14 1.6-.41.46-.28.77-.66.92-1.15.1-.1.17-.16.25-.2a.44.44 0 0 1 .18-.05c.08 0 .14.03.2.1.04.05.07.16.07.3 0 .75-.2 1.43-.6 2.05-.41.63-.98 1.12-1.7 1.5Zm-3.99-5.59a9 9 0 0 1 .14-2.24c.1-.41.24-.7.4-.87a.75.75 0 0 1 .56-.26c.26 0 .5.22.74.67.23.45.34 1.2.34 2.25 0 .32-.14.48-.43.48H64.4v-.03Zm14.76 5.59c-.73.37-1.57.56-2.53.56a5.64 5.64 0 0 1-2.77-.66A4.72 4.72 0 0 1 72 14.4a5.47 5.47 0 0 1-.67-2.74c0-1.1.22-2.05.65-2.87a4.62 4.62 0 0 1 1.87-1.92c.82-.45 1.8-.68 2.95-.68.98 0 1.82.2 2.52.58.71.38 1.25.9 1.63 1.56.38.66.57 1.4.57 2.2 0 .36-.1.63-.28.84l-.05.04c-.18.17-.44.26-.76.26h-5.15l.01.05c.14.63.37 1.13.7 1.51.56.65 1.32.97 2.25.97.6 0 1.13-.14 1.6-.41.46-.28.77-.66.92-1.15.1-.1.18-.16.25-.2a.44.44 0 0 1 .18-.05c.08 0 .14.03.2.1.05.05.07.16.07.3 0 .75-.2 1.43-.6 2.05-.41.63-.98 1.12-1.7 1.5Zm-4-5.59a9 9 0 0 1 .15-2.24c.1-.41.24-.7.4-.87a.75.75 0 0 1 .55-.26c.26 0 .51.22.74.67.23.45.34 1.2.34 2.25 0 .32-.14.48-.42.48h-1.75v-.03Zm13.6 5.78c-.1.1-.24.14-.42.14h-5.63a.53.53 0 0 1-.39-.14.5.5 0 0 1-.14-.38c0-.12.03-.22.09-.3a.93.93 0 0 1 .23-.22l.26-.1c.1-.05.16-.12.2-.22.04-.1.06-.27.06-.5V9a.92.92 0 0 0-.07-.4.43.43 0 0 0-.2-.2l-.3-.03a.72.72 0 0 1-.23-.19.44.44 0 0 1-.07-.26c0-.12.04-.23.11-.33.08-.1.2-.18.38-.24l3.2-.93c.19-.08.35-.13.47-.16.13-.03.24-.05.33-.05.13 0 .22.05.29.14l.02.03c.05.1.09.25.1.46l.1 1.78.01-.07.13-.35a3.4 3.4 0 0 1 1.08-1.52c.45-.34.95-.5 1.48-.5.64 0 1.14.22 1.49.65.34.44.51 1.1.51 1.98 0 .88-.18 1.52-.54 1.93-.36.42-.82.62-1.4.62-.55 0-.96-.14-1.23-.42-.26-.28-.4-.68-.42-1.2v-.46a.87.87 0 0 0-.11-.41c-.06-.1-.16-.15-.3-.15-.13 0-.25.07-.35.21-.1.14-.18.36-.23.65a6.4 6.4 0 0 0-.08 1.1v4.03c0 .22.04.39.1.51.07.13.18.2.32.24l.84.17c.16.02.27.08.34.18.07.1.1.2.1.33a.5.5 0 0 1-.14.38Zm9 .35a6 6 0 0 0 2.94-.7 5.17 5.17 0 0 0 2.7-4.6c0-1.06-.24-2-.7-2.8a4.92 4.92 0 0 0-1.9-1.9 5.78 5.78 0 0 0-2.88-.7A5.9 5.9 0 0 0 95 6.9a5.25 5.25 0 0 0-2.7 4.63c0 1.05.22 1.98.68 2.78.46.8 1.1 1.43 1.92 1.88.82.46 1.77.69 2.86.69Zm.17-1.5c.22.25.44.35.68.3.23-.04.4-.22.52-.54.12-.32.17-.8.15-1.43-.02-.63-.12-1.43-.3-2.4-.18-.96-.37-1.75-.58-2.34-.2-.6-.41-1.02-.63-1.27-.22-.25-.45-.36-.68-.31-.23.05-.4.24-.52.56-.11.32-.16.8-.14 1.42.03.62.12 1.42.3 2.4.18.96.37 1.74.57 2.34.2.6.4 1.02.63 1.27Zm14.39 1.52c.63 0 1.15-.12 1.55-.35.4-.23.7-.51.9-.83.2-.32.3-.61.3-.88a.53.53 0 0 0-.07-.29.22.22 0 0 0-.2-.11c-.03 0-.06 0-.1.02a.23.23 0 0 0-.07.07c-.04.14-.1.23-.18.29a.44.44 0 0 1-.25.08c-.13 0-.23-.05-.29-.14a.58.58 0 0 1-.1-.34V9.35c0-1-.33-1.79-1.01-2.34-.68-.56-1.75-.83-3.2-.83-1.12 0-2.06.14-2.81.42a4.1 4.1 0 0 0-1.7 1.08c-.38.44-.57.89-.57 1.35 0 .49.14.86.42 1.11.28.26.69.39 1.22.39.65 0 1.17-.18 1.54-.54.38-.35.57-.81.57-1.37v-.87c0-.22.06-.38.2-.5a.7.7 0 0 1 .48-.18.6.6 0 0 1 .5.24 1 1 0 0 1 .19.63v3.34l-.06-.02a3.74 3.74 0 0 0-.63-.06h-.12c-1.61 0-2.82.28-3.6.83a2.64 2.64 0 0 0-1.2 2.3c0 .74.28 1.36.82 1.84.54.48 1.27.72 2.17.72.67 0 1.3-.14 1.89-.42a3 3 0 0 0 1.07-.82l.01-.02.02.05c.09.25.24.47.48.66l.07.06c.41.33 1 .49 1.76.49Zm-3.88-2.16c.18.25.43.37.73.37h.06c.13 0 .25-.04.37-.1l.04-.03v-2.93l-.06-.02a1.74 1.74 0 0 0-.45-.05c-.29 0-.52.14-.7.41-.18.27-.27.68-.27 1.21 0 .51.1.9.28 1.14Zm11.81 2.2c1.34 0 2.36-.32 3.08-.93a3.17 3.17 0 0 0 1.07-2.53 3.8 3.8 0 0 0-.36-1.7 3.3 3.3 0 0 0-1.26-1.3c-.6-.38-1.45-.74-2.54-1.08-.4-.13-.71-.26-.94-.4a1.2 1.2 0 0 1-.45-.42 1.01 1.01 0 0 1-.13-.5c0-.25.1-.46.28-.62.2-.16.47-.24.84-.24.5 0 1 .17 1.44.51.46.35.96.93 1.5 1.76.15.18.3.3.44.39.14.08.27.1.4.07a.4.4 0 0 0 .3-.31c.03-.17.02-.4-.03-.7l-.3-2.11c-.02-.22-.08-.38-.16-.47a.42.42 0 0 0-.33-.14c-.12 0-.27.04-.45.13l-.53.26c-.18.08-.31.13-.4.13a.85.85 0 0 1-.37-.14 3.64 3.64 0 0 0-1.81-.41c-.78 0-1.48.14-2.1.42-.61.28-1.1.69-1.46 1.2a3.24 3.24 0 0 0-.53 1.88c0 .64.13 1.2.4 1.68.26.48.67.9 1.22 1.24.55.34 1.24.62 2.07.83.54.15.95.3 1.24.44.3.15.5.31.6.49.11.18.16.37.16.58 0 .29-.09.52-.28.7-.19.18-.47.28-.85.28-.36 0-.7-.08-1.03-.24a3.4 3.4 0 0 1-1.01-.8c-.34-.39-.73-.9-1.16-1.57-.13-.18-.27-.3-.43-.37a.58.58 0 0 0-.5.01c-.15.06-.25.2-.3.4-.04.19-.03.43.04.72l.35 2.28c.05.23.12.38.22.46.1.07.2.11.32.11s.28-.04.46-.12l.56-.25c.18-.09.33-.13.44-.13.11 0 .26.04.44.13a4.2 4.2 0 0 0 1.84.38Zm10.68-.44c-.5.27-1.08.4-1.76.4-1.14 0-2-.28-2.57-.84-.58-.55-.86-1.43-.86-2.63V8.25c0-.16-.02-.28-.05-.37-.03-.08-.1-.15-.22-.2l-.53-.17c-.13-.07-.21-.14-.25-.23a.84.84 0 0 1-.06-.32c0-.16.06-.3.17-.4a.6.6 0 0 1 .42-.15h.55c.07 0 .14-.03.22-.08.07-.06.17-.16.3-.32l2.08-1.75c.15-.19.3-.33.45-.42.15-.1.3-.15.45-.15.17 0 .31.06.4.16l.04.04c.07.11.11.27.11.47V6.4h2.36c.16 0 .29.03.38.1.09.08.13.2.13.34 0 .22-.09.4-.28.55l-.04.03c-.19.14-.47.2-.86.2h-1.69v5.22c0 .57.1 1 .3 1.27.18.27.46.41.83.41.16 0 .3-.03.44-.1.13-.07.26-.16.36-.27.11-.11.22-.24.31-.37l.28-.41a.17.17 0 0 1 .2.04c.06.05.08.17.08.34a3.64 3.64 0 0 1-.52 1.64c-.29.46-.68.83-1.17 1.1Zm7.37.4c.95 0 1.8-.19 2.52-.56.73-.38 1.3-.87 1.7-1.5.4-.62.6-1.3.6-2.05 0-.14-.02-.25-.07-.3a.25.25 0 0 0-.2-.1.44.44 0 0 0-.18.05.85.85 0 0 0-.24.2c-.16.49-.47.87-.93 1.15-.46.27-.99.4-1.59.4-.94 0-1.69-.31-2.25-.96a3.32 3.32 0 0 1-.7-1.5l-.01-.06h5.14c.33 0 .59-.09.77-.26l.04-.04c.2-.2.29-.48.29-.83 0-.81-.2-1.55-.57-2.2a4.09 4.09 0 0 0-1.63-1.57 5.19 5.19 0 0 0-2.52-.58c-1.15 0-2.13.23-2.95.68a4.63 4.63 0 0 0-1.88 1.92 6.08 6.08 0 0 0-.64 2.87c0 1.04.22 1.95.67 2.74.44.79 1.07 1.4 1.86 1.84.8.44 1.72.66 2.77.66Zm-1.49-6.7.02.55v.03h1.75c.29 0 .43-.16.43-.48a5.3 5.3 0 0 0-.34-2.25c-.23-.45-.48-.67-.74-.67-.2 0-.39.08-.55.26-.17.17-.3.46-.4.87-.11.41-.17.98-.17 1.7Zm13.2 6.47c.18 0 .31-.05.4-.14a.5.5 0 0 0 .15-.38.57.57 0 0 0-.1-.33c-.07-.1-.18-.16-.34-.18l-.84-.17a.44.44 0 0 1-.32-.24c-.07-.12-.1-.3-.1-.5v-4.03c0-.45.03-.82.08-1.11.05-.3.13-.5.23-.65.1-.14.22-.21.35-.21.14 0 .24.05.3.15.06.1.09.23.1.4v.47c.02.52.17.92.43 1.2.27.28.68.42 1.23.42.57 0 1.04-.2 1.4-.62.36-.4.54-1.05.54-1.93 0-.89-.17-1.54-.52-1.98a1.79 1.79 0 0 0-1.48-.65c-.54 0-1.03.16-1.48.5a3.4 3.4 0 0 0-1.08 1.52c-.05.11-.1.23-.13.35l-.02.07-.09-1.78a1.24 1.24 0 0 0-.1-.46l-.03-.03c-.06-.1-.16-.14-.28-.14-.1 0-.2.02-.33.05-.13.03-.28.08-.47.16l-3.2.93a.87.87 0 0 0-.38.24c-.08.1-.11.2-.11.33 0 .1.02.2.07.26.05.07.13.13.23.2l.3.03c.09.05.16.1.2.19.04.08.06.21.06.4v5.8c0 .23-.02.4-.05.5-.04.1-.1.17-.2.22l-.27.1a.96.96 0 0 0-.23.22.52.52 0 0 0-.08.3c0 .17.05.3.14.38.1.1.22.14.39.14H150Zm11.85-.66c-.71.61-1.74.92-3.07.92a4.2 4.2 0 0 1-1.84-.37 1.15 1.15 0 0 0-.45-.13c-.11 0-.26.04-.44.13l-.55.25c-.19.08-.34.12-.47.12a.5.5 0 0 1-.32-.11c-.1-.08-.17-.23-.22-.46l-.35-2.28a1.67 1.67 0 0 1-.03-.73c.04-.2.14-.33.3-.39a.58.58 0 0 1 .49 0c.16.06.3.18.43.36.43.66.82 1.18 1.16 1.56.35.39.68.66 1.01.81.33.16.67.24 1.03.24.38 0 .67-.1.86-.28a.93.93 0 0 0 .28-.7c0-.21-.06-.4-.17-.58-.1-.18-.3-.34-.6-.49-.28-.15-.7-.3-1.24-.44a7.34 7.34 0 0 1-2.07-.83 3.44 3.44 0 0 1-1.22-1.24 3.42 3.42 0 0 1-.4-1.68 3.24 3.24 0 0 1 2-3.08 4.98 4.98 0 0 1 3.23-.28c.29.09.51.18.68.27.16.1.28.14.36.14.1 0 .22-.05.4-.13.18-.1.36-.18.54-.26.18-.09.33-.13.45-.13.13 0 .24.05.32.14.08.1.14.25.17.47l.3 2.1c.05.3.05.54.02.7a.4.4 0 0 1-.3.32.55.55 0 0 1-.4-.07c-.14-.08-.29-.21-.43-.39a7.2 7.2 0 0 0-1.5-1.76 2.36 2.36 0 0 0-1.45-.51c-.37 0-.64.08-.83.24a.79.79 0 0 0-.28.63c0 .17.04.34.12.49.08.15.24.3.46.43.22.13.53.26.94.4 1.09.33 1.93.69 2.53 1.06.6.38 1.02.81 1.26 1.3s.36 1.06.36 1.7c0 1.08-.36 1.92-1.07 2.54Z" fill="#333D4B"/><path fill-rule="evenodd" clip-rule="evenodd" d="M9.94 3.08C7.5.65 3.9.3 1.92 2.3c-2 2-1.65 5.6.77 8.04.65.65 1.4 1.14 2.18 1.5.26-1.5 1-2.95 2.12-4.13-.37-.14-.75-.25-1.15-.36-2.35-.65-3.53-2.62-3.8-4.93.23.28.43.56.64.85.4.55.8 1.1 1.33 1.54A7.14 7.14 0 0 0 6.88 6.1c.48.13.9.34 1.27.58 1-.73 2.12-1.22 3.28-1.42a7.32 7.32 0 0 0-1.5-2.18Zm-4.1 9.34c.15-1.5.88-2.98 2.04-4.15 2.43-2.43 6.03-2.78 8.02-.78 2 2 1.65 5.61-.78 8.04a6.92 6.92 0 0 1-4.72 2.09c-1.3 0-2.45-.46-3.3-1.31a4.7 4.7 0 0 1-1.27-3.9Zm3.54 1.23c.8-.6 1.66-.85 2.6-1.1 2.35-.65 3.52-2.62 3.8-4.93-.23.27-.43.55-.64.84-.4.55-.8 1.1-1.33 1.55-.84.69-1.76.96-2.77 1.25l-.1.03c-2.31.67-3.45 2.62-3.71 4.9l.64-.84c.45-.62.9-1.22 1.51-1.7Z" fill="#0E8784"/></svg>