<svg width="72" height="50" fill="none" xmlns="http://www.w3.org/2000/svg"><path fill-rule="evenodd" clip-rule="evenodd" d="M4.85 0H9v4.17H4.85V0ZM0 19.44h4.15v4.17H0v-4.17ZM16.43 4.23h-3.3V0h35.33v35.4a10.5 10.5 0 0 0-3.65 7.66H27.05a10.49 10.49 0 0 0-10.45-10.2 10.49 10.49 0 0 0-10.45 10.2H0V29.12h11.77a2.74 2.74 0 0 0 0-5.48H8.34v-4.23h17.93a2.74 2.74 0 0 0 0-5.47H0V9.7h16.6c1.5 0 2.73-1.23 2.73-2.74 0-1.46-1.35-2.74-2.9-2.74Zm32.72 39.52c0-3.45 2.8-6.25 6.23-6.25a6.25 6.25 0 0 1 0 12.5 6.25 6.25 0 0 1-6.23-6.25Zm4.13 2.1h4.2v-4.2h-4.2v4.2Zm-.66-40.99h8.44l9.56 14.58h-18V4.86Zm0 18.75v9.57a10.59 10.59 0 0 1 13.16 9.88H72V23.6H52.62Zm-36 13.89a6.25 6.25 0 0 0 0 12.5 6.25 6.25 0 0 0 0-12.5Zm2.1 8.36h-4.2v-4.22h4.2v4.22Z" fill="#FDD6BA"/></svg>