<svg width="689" height="118" fill="none" xmlns="http://www.w3.org/2000/svg"><g opacity=".5"><path d="M31.5 50.29c5.43 0 10.18 1.04 14.25 3.12a22.7 22.7 0 0 1 9.45 8.64c2.28 3.71 3.41 8.03 3.41 12.96 0 4.54-1.18 8.65-3.55 12.33a25.25 25.25 0 0 1-9.84 8.79c-4.16 2.14-9 3.21-14.5 3.21-5.44 0-10.19-1.04-14.25-3.12a23.68 23.68 0 0 1-9.5-8.73A24.4 24.4 0 0 1 3.6 74.62c0-4.64 1.19-8.78 3.56-12.43a24.62 24.62 0 0 1 9.79-8.69c4.19-2.14 9.04-3.21 14.54-3.21Zm3.5 42.1c1.21-.3 2.14-1.14 2.78-2.55.64-1.4.93-3.46.86-6.14-.06-2.7-.54-6.1-1.44-10.23a53.76 53.76 0 0 0-2.83-9.7c-1.02-2.49-2.14-4.28-3.36-5.37-1.21-1.09-2.48-1.47-3.8-1.15-1.2.29-2.13 1.13-2.77 2.54-.64 1.41-.93 3.46-.87 6.15.1 2.65.58 6.06 1.44 10.22a55.38 55.38 0 0 0 2.83 9.7c1.06 2.5 2.18 4.28 3.36 5.37 1.22 1.06 2.48 1.44 3.8 1.15Zm63.98-4.23v-.62h-.72V65.36c0-1.02-.14-1.74-.43-2.16a1.95 1.95 0 0 0-1.2-.91l-1.05-.34a3.02 3.02 0 0 1-1.5-.96 2.72 2.72 0 0 1-.42-1.58c0-.77.2-1.38.62-1.83.42-.44 1.2-.9 2.35-1.34l10.66-4.13c1.63-.64 2.94-1.1 3.93-1.39 1.03-.29 2.02-.43 2.98-.43 1.44 0 2.53.41 3.26 1.25.77.8 1.16 1.82 1.16 3.07v33.31c0 1.28.1 2.2.28 2.74.2.5.53.88 1.01 1.1l1.06.48c.73.32 1.26.72 1.58 1.2.32.48.48 1.04.48 1.68 0 .9-.29 1.6-.86 2.11-.58.51-1.5.77-2.79.77h-11.76c-2.27 0-4.28-.98-6.04-2.93a10.09 10.09 0 0 1-2.6-6.91Zm-31.72-4.18V65.36c0-1.02-.15-1.74-.44-2.16a1.95 1.95 0 0 0-1.2-.91l-1.05-.34a3.02 3.02 0 0 1-1.49-.96 2.72 2.72 0 0 1-.43-1.58c0-.77.2-1.38.62-1.83.42-.44 1.2-.9 2.35-1.34l10.66-4.13a38.9 38.9 0 0 1 4.08-1.39c1-.29 1.87-.43 2.64-.43 1.54 0 2.69.41 3.46 1.25.76.8 1.15 1.82 1.15 3.07v26.5c0 2.04.46 3.58 1.39 4.6a5.2 5.2 0 0 0 3.98 1.54c1.06 0 2.16-.21 3.32-.63a9.32 9.32 0 0 0 3.07-1.82l1.68-1.49 2.88 3.07-1.44 1.35c-4.51 4.32-8.43 7.34-11.76 9.07-3.33 1.7-6.39 2.54-9.17 2.54-4.26 0-7.71-1.42-10.37-4.27-2.62-2.85-3.93-6.54-3.93-11.09Zm84.22-12.19c0-4.9.64-8.93 1.92-12.1 1.28-3.2 2.97-5.56 5.09-7.1a11.78 11.78 0 0 1 7-2.3c3.4 0 5.99 1.02 7.78 3.07 1.82 2.02 2.73 5.07 2.73 9.17 0 4.19-.84 7.28-2.54 9.26a8.11 8.11 0 0 1-6.53 2.98c-2.72 0-4.77-.69-6.14-2.07-1.34-1.4-2.02-3.34-2.02-5.8v-2.02a3.03 3.03 0 0 0-.57-1.87c-.32-.45-.83-.67-1.54-.67-.64 0-1.22.28-1.73.86a6.3 6.3 0 0 0-1.15 2.74 23.64 23.64 0 0 0-.43 5.08l-1.87.77Zm.53-17.18 1.34 10.03v23.28c0 1.12.16 1.92.48 2.4.32.45 1.05.78 2.2 1l3.66.73c.96.19 1.66.53 2.1 1 .46.49.68 1.16.68 2.02a2.6 2.6 0 0 1-.96 2.16c-.6.51-1.52.77-2.74.77h-26.54c-1.28 0-2.2-.26-2.78-.77a2.68 2.68 0 0 1-.87-2.11c0-.64.16-1.2.48-1.68.32-.48.85-.88 1.59-1.2l1.05-.48c.48-.22.82-.6 1-1.1.2-.55.3-1.46.3-2.74V65.55c0-1.02-.15-1.74-.44-2.16a1.95 1.95 0 0 0-1.2-.91l-1.05-.34a3.02 3.02 0 0 1-1.49-.96 2.72 2.72 0 0 1-.43-1.58c0-.77.2-1.38.62-1.82a6.22 6.22 0 0 1 2.36-1.35l10.31-4.03c2.28-.9 3.9-1.47 4.9-1.73 1-.25 1.76-.38 2.3-.38.9 0 1.59.33 2.07 1 .48.65.83 1.75 1.06 3.32Zm95.4 10.51c0 2.43-.94 4.5-2.8 6.2-1.82 1.69-4.26 2.54-7.34 2.54-2.97 0-5.21-.79-6.72-2.36a8.65 8.65 0 0 1-2.2-6.1v-1.53c0-2.08-.44-3.71-1.3-4.9a4 4 0 0 0-3.4-1.82c-1.13 0-2.18.42-3.18 1.25a8.86 8.86 0 0 0-2.35 3.84c-.6 1.7-.9 3.86-.9 6.48 0 3.71.62 6.82 1.86 9.31a13.43 13.43 0 0 0 5.23 5.67 15.05 15.05 0 0 0 7.54 1.87c2.05 0 3.89-.24 5.52-.72a13.62 13.62 0 0 0 4.94-2.93c.93-.83 1.64-1.4 2.12-1.68a2.7 2.7 0 0 1 1.39-.43c.64 0 1.1.32 1.4.96.31.64.47 1.42.47 2.35 0 2.85-.96 5.52-2.88 8.02a19.85 19.85 0 0 1-7.92 5.95 28.9 28.9 0 0 1-11.8 2.25c-4.9 0-9.3-.96-13.2-2.88a23.4 23.4 0 0 1-9.22-8.1 21.83 21.83 0 0 1-3.41-12.2c0-4.96 1.09-9.4 3.26-13.3 2.21-3.9 5.31-6.97 9.31-9.21 4.04-2.24 8.79-3.36 14.26-3.36 4.38 0 8.16.67 11.33 2.01 3.2 1.32 5.66 3.1 7.4 5.33a11.96 11.96 0 0 1 2.58 7.49Zm33.27-14.83c5.44 0 10.2 1.04 14.25 3.12a22.7 22.7 0 0 1 9.46 8.64c2.27 3.71 3.4 8.03 3.4 12.96 0 4.54-1.18 8.65-3.54 12.33a25.25 25.25 0 0 1-9.84 8.79c-4.16 2.14-9 3.21-14.5 3.21-5.44 0-10.2-1.04-14.26-3.12a23.68 23.68 0 0 1-9.5-8.73 24.4 24.4 0 0 1-3.36-12.87c0-4.64 1.19-8.78 3.55-12.43a24.62 24.62 0 0 1 9.8-8.69c4.19-2.14 9.04-3.21 14.54-3.21Zm3.5 42.1c1.22-.3 2.15-1.14 2.79-2.55.64-1.4.92-3.46.86-6.14-.06-2.7-.54-6.1-1.44-10.23a53.76 53.76 0 0 0-2.83-9.7c-1.02-2.49-2.14-4.28-3.36-5.37-1.22-1.09-2.48-1.47-3.8-1.15-1.2.29-2.14 1.13-2.78 2.54-.64 1.41-.93 3.46-.86 6.15.1 2.65.57 6.06 1.44 10.22a55.38 55.38 0 0 0 2.83 9.7c1.06 2.5 2.18 4.28 3.36 5.37 1.22 1.06 2.48 1.44 3.8 1.15Zm53.57-62.55v58.08c0 1.28.1 2.2.3 2.74.19.5.52.88 1 1.1l1.06.48c.73.32 1.26.72 1.58 1.2.32.48.48 1.04.48 1.68 0 .9-.29 1.6-.86 2.11-.58.51-1.5.77-2.79.77h-21.88c-1.28 0-2.21-.26-2.79-.77a2.68 2.68 0 0 1-.86-2.11c0-.64.16-1.2.48-1.68.32-.48.84-.88 1.58-1.2l1.06-.48c.48-.22.81-.6 1-1.1.2-.55.3-1.46.3-2.74V40.59c0-1.02-.15-1.74-.44-2.16a1.95 1.95 0 0 0-1.2-.91l-1.06-.34a3.02 3.02 0 0 1-1.48-.96 2.72 2.72 0 0 1-.44-1.58c0-.77.21-1.38.63-1.82.41-.45 1.2-.9 2.35-1.35l10.66-4.13a38.9 38.9 0 0 1 4.08-1.39c.99-.29 1.87-.43 2.64-.43 1.53 0 2.69.42 3.45 1.25.77.8 1.15 1.82 1.15 3.07Zm33.75 0v58.08c0 1.28.1 2.2.3 2.74.19.5.52.88 1 1.1l1.06.48c.73.32 1.26.72 1.58 1.2.32.48.48 1.04.48 1.68 0 .9-.29 1.6-.86 2.11-.58.51-1.5.77-2.79.77H350.4c-1.28 0-2.21-.26-2.79-.77a2.68 2.68 0 0 1-.86-2.11c0-.64.16-1.2.48-1.68.32-.48.84-.88 1.58-1.2l1.06-.48c.48-.22.81-.6 1-1.1.2-.55.3-1.46.3-2.74V40.59c0-1.02-.15-1.74-.44-2.16a1.95 1.95 0 0 0-1.2-.91l-1.06-.34a3.02 3.02 0 0 1-1.48-.96 2.72 2.72 0 0 1-.44-1.58c0-.77.21-1.38.63-1.82.41-.45 1.2-.9 2.35-1.35l10.66-4.13a38.9 38.9 0 0 1 4.08-1.39c.99-.29 1.87-.43 2.64-.43 1.53 0 2.69.42 3.45 1.25.77.8 1.15 1.82 1.15 3.07Zm57.61 38.98c0 2.24-.6 3.98-1.82 5.23-1.22 1.21-2.96 1.82-5.24 1.82H393.6v-4.99h12.82c1.76 0 2.64-.83 2.64-2.5 0-4.03-.47-6.9-1.4-8.64-.92-1.72-2.15-2.59-3.7-2.59-1.11 0-2.12.42-3.01 1.25a8.72 8.72 0 0 0-2.17 3.84c-.5 1.7-.76 3.86-.76 6.48 0 5.82 1.3 10.1 3.93 12.82 2.63 2.68 6.21 4.03 10.75 4.03 2.12 0 4.04-.24 5.76-.72a13.01 13.01 0 0 0 5.1-2.93c.92-.83 1.63-1.4 2.1-1.68a2.7 2.7 0 0 1 1.4-.43c.64 0 1.1.32 1.39.96.32.64.48 1.42.48 2.35 0 2.85-.98 5.52-2.93 8.02-1.92 2.46-4.6 4.44-8.06 5.95-3.43 1.5-7.43 2.25-12 2.25-4.9 0-9.3-.96-13.2-2.88-3.9-1.95-7-4.65-9.27-8.1a21.83 21.83 0 0 1-3.4-12.2c0-5.22 1.04-9.76 3.12-13.63a21.83 21.83 0 0 1 9.07-9.03c4-2.14 8.81-3.21 14.44-3.21 4.96 0 9.1.8 12.44 2.4a17 17 0 0 1 7.49 6.57 18.26 18.26 0 0 1 2.5 9.56Zm52.86-3.7c0 2.43-.93 4.5-2.79 6.2-1.82 1.69-4.27 2.54-7.34 2.54-2.98 0-5.22-.79-6.72-2.36a8.65 8.65 0 0 1-2.21-6.1v-1.53c0-2.08-.43-3.71-1.3-4.9a4 4 0 0 0-3.4-1.82c-1.12 0-2.18.42-3.17 1.25a8.86 8.86 0 0 0-2.35 3.84c-.61 1.7-.92 3.86-.92 6.48 0 3.71.63 6.82 1.88 9.31a13.43 13.43 0 0 0 5.23 5.67 15.05 15.05 0 0 0 7.53 1.87c2.05 0 3.9-.24 5.52-.72a13.62 13.62 0 0 0 4.95-2.93c.93-.83 1.63-1.4 2.11-1.68a2.7 2.7 0 0 1 1.4-.43c.63 0 1.1.32 1.38.96.32.64.48 1.42.48 2.35 0 2.85-.96 5.52-2.88 8.02a19.85 19.85 0 0 1-7.92 5.95 28.9 28.9 0 0 1-11.8 2.25c-4.9 0-9.3-.96-13.2-2.88a23.4 23.4 0 0 1-9.22-8.1 21.83 21.83 0 0 1-3.4-12.2c0-4.96 1.08-9.4 3.26-13.3 2.2-3.9 5.3-6.97 9.3-9.21 4.04-2.24 8.8-3.36 14.26-3.36 4.39 0 8.16.67 11.33 2.01 3.2 1.32 5.67 3.1 7.4 5.33a11.96 11.96 0 0 1 2.59 7.49Zm7.6-7.15-1.55-.63a3.78 3.78 0 0 1-1.58-1.1c-.35-.45-.53-1-.53-1.63 0-.93.3-1.63.91-2.11a3.8 3.8 0 0 1 2.45-.77h2.64c.61 0 1.17-.16 1.68-.48.55-.32 1.24-.9 2.07-1.73l7.82-7.92a14.45 14.45 0 0 1 2.93-2.35c.93-.51 1.8-.77 2.64-.77.93 0 1.65.3 2.16.91.54.61.81 1.49.81 2.64v38.5c0 2.33.4 4.11 1.2 5.33a3.89 3.89 0 0 0 3.46 1.82c1.22 0 2.15-.3 2.79-.91.67-.61 1.2-1.3 1.58-2.07.42-.8.85-1.5 1.3-2.1.44-.62 1.05-.92 1.82-.92.64 0 1.15.22 1.54.67.38.45.57 1.22.57 2.3 0 2.73-.78 5.2-2.35 7.45a16.4 16.4 0 0 1-6.48 5.28 21.6 21.6 0 0 1-9.4 1.96c-5.23 0-9.26-1.24-12.1-3.74-2.85-2.53-4.28-6.34-4.28-11.42v-23.1c0-.92-.17-1.6-.53-2a3.94 3.94 0 0 0-1.58-1.11Zm15.45.57v-6.81h17.52c.99 0 1.77.22 2.35.67.6.42.91 1.02.91 1.82 0 1.22-.6 2.24-1.77 3.08-1.19.83-3.14 1.24-5.86 1.24h-13.15Zm49.95-3.93v33.31c0 1.28.1 2.2.3 2.74.18.5.52.88 1 1.1l1.06.48c.73.32 1.26.72 1.58 1.2.32.48.48 1.04.48 1.68 0 .9-.29 1.6-.86 2.11-.58.51-1.5.77-2.79.77h-21.89c-1.28 0-2.2-.26-2.78-.77a2.68 2.68 0 0 1-.86-2.11c0-.64.16-1.2.48-1.68.32-.48.84-.88 1.58-1.2l1.06-.48c.48-.22.81-.6 1-1.1.2-.55.3-1.46.3-2.74V65.36c0-1.02-.15-1.74-.44-2.16a1.95 1.95 0 0 0-1.2-.91l-1.06-.34a3.02 3.02 0 0 1-1.48-.96 2.72 2.72 0 0 1-.44-1.58c0-.77.21-1.38.63-1.83.41-.44 1.2-.9 2.35-1.34l10.66-4.13a38.9 38.9 0 0 1 4.08-1.39c.99-.29 1.87-.43 2.64-.43 1.53 0 2.68.41 3.45 1.25.77.8 1.15 1.82 1.15 3.07Zm-11.23-8.55c-3.58 0-6.41-.83-8.5-2.5a8.26 8.26 0 0 1-3.11-6.8 8.07 8.07 0 0 1 3.12-6.73c2.08-1.63 4.9-2.45 8.5-2.45 3.58 0 6.4.82 8.49 2.45a8.07 8.07 0 0 1 3.12 6.72 8.26 8.26 0 0 1-3.12 6.82c-2.08 1.66-4.91 2.5-8.5 2.5Zm47.72 4.23c5.44 0 10.2 1.04 14.26 3.12a22.7 22.7 0 0 1 9.45 8.64c2.27 3.71 3.41 8.03 3.41 12.96 0 4.54-1.18 8.65-3.55 12.33a25.25 25.25 0 0 1-9.84 8.79c-4.16 2.14-9 3.21-14.5 3.21-5.44 0-10.19-1.04-14.25-3.12a23.68 23.68 0 0 1-9.5-8.73 24.4 24.4 0 0 1-3.37-12.87c0-4.64 1.19-8.78 3.55-12.43a24.62 24.62 0 0 1 9.8-8.69c4.19-2.14 9.04-3.21 14.54-3.21Zm3.5 42.1c1.22-.3 2.15-1.14 2.79-2.55.64-1.4.93-3.46.86-6.14-.06-2.7-.54-6.1-1.44-10.23a53.76 53.76 0 0 0-2.83-9.7c-1.02-2.49-2.14-4.28-3.36-5.37-1.22-1.09-2.48-1.47-3.8-1.15-1.2.29-2.14 1.13-2.78 2.54-.64 1.41-.92 3.46-.86 6.15.1 2.65.58 6.06 1.44 10.22a55.38 55.38 0 0 0 2.83 9.7c1.06 2.5 2.18 4.28 3.36 5.37 1.22 1.06 2.48 1.44 3.8 1.15Zm53.58-37.78v33.31c0 1.28.1 2.18.28 2.69.2.51.53.9 1.01 1.15l.96.53a2.89 2.89 0 0 1 1.59 2.64c0 2.05-1.24 3.07-3.7 3.07h-21.26c-1.28 0-2.21-.26-2.79-.77a2.68 2.68 0 0 1-.86-2.11c0-.64.16-1.2.48-1.68.32-.48.85-.88 1.58-1.2l1.06-.48c.48-.22.81-.6 1-1.1.2-.55.3-1.46.3-2.74V65.36c0-1.02-.15-1.74-.44-2.16a1.95 1.95 0 0 0-1.2-.91l-1.05-.34A3.02 3.02 0 0 1 624 61a2.72 2.72 0 0 1-.42-1.58c0-.77.2-1.38.62-1.83.42-.44 1.2-.9 2.35-1.34l10.66-4.13c1.63-.64 2.94-1.1 3.93-1.39 1.03-.29 2.02-.43 2.98-.43 1.44 0 2.53.41 3.26 1.25.77.8 1.16 1.82 1.16 3.07Zm-1.73 11.71-2.88-3.07 1.44-1.35c4.51-4.32 8.43-7.32 11.76-9.02 3.33-1.73 6.38-2.6 9.17-2.6 4.28 0 7.74 1.43 10.36 4.28 2.63 2.82 3.94 6.51 3.94 11.09v22.27c0 1.28.1 2.2.29 2.74.19.5.53.88 1 1.1l1.06.48c.74.32 1.27.72 1.59 1.2.32.48.48 1.04.48 1.68 0 .9-.3 1.6-.87 2.11-.57.51-1.5.77-2.78.77H660.1c-2.46 0-3.7-1.02-3.7-3.07 0-1.15.54-2.03 1.6-2.64l.95-.53a2.1 2.1 0 0 0 1.01-1.15c.2-.51.29-1.41.29-2.69v-19.4c0-2.04-.48-3.58-1.44-4.6a5.04 5.04 0 0 0-3.94-1.54c-1.05 0-2.16.21-3.31.63a9.32 9.32 0 0 0-3.07 1.82l-1.68 1.49Z" fill="#83888F"/><path fill="url(#a)" d="M0 0h689v118H0z"/></g><defs><linearGradient id="a" x1="0" y1="0" x2="0" y2="118" gradientUnits="userSpaceOnUse"><stop stop-color="#FEFCF7" stop-opacity=".01"/><stop offset="1" stop-color="#FEFCF7"/></linearGradient></defs></svg>