<svg width="99" height="54" fill="none" xmlns="http://www.w3.org/2000/svg"><path d="M25.22.16c5.1 0 9.41 1.03 12.96 3.1a19.8 19.8 0 0 1 8.1 9.07c1.88 3.98 2.81 8.84 2.81 14.58 0 5.4-1 10.09-3.02 14.07a22 22 0 0 1-8.46 9.22c-3.63 2.16-7.91 3.24-12.85 3.24-5.07 0-9.39-1.03-12.96-3.1a20.01 20.01 0 0 1-8.14-9.07C1.8 37.3.89 32.43.89 26.7c0-5.4 1-10.08 2.99-14.04a21.95 21.95 0 0 1 8.5-9.21C16.01 1.25 20.3.16 25.21.16ZM32.1 28.6c0-5.9-.28-10.62-.83-14.15-.53-3.53-1.34-6.07-2.45-7.63-1.08-1.56-2.46-2.34-4.14-2.34-1.53 0-2.8.68-3.81 2.05-1.01 1.35-1.77 3.53-2.27 6.55-.48 3-.72 6.98-.72 11.92 0 5.9.26 10.62.8 14.15.54 3.53 1.36 6.07 2.44 7.63 1.1 1.56 2.5 2.34 4.18 2.34a4.6 4.6 0 0 0 3.81-2.02c1-1.36 1.75-3.55 2.23-6.55.5-3.02.76-7 .76-11.95Zm28.62 11.23-2.45-1.87 6.62-3.38a28 28 0 0 0 6.66-4.65c1.83-1.75 3.2-3.8 4.14-6.15a21.61 21.61 0 0 0 1.44-8.21c0-2.88-.16-5.17-.5-6.88-.31-1.73-.78-2.97-1.4-3.74a2.7 2.7 0 0 0-2.2-1.15c-1.2 0-2.05.55-2.56 1.65-.48 1.1-.72 2.63-.72 4.57v5c0 2.22-.68 3.98-2.05 5.3-1.34 1.32-3.23 1.98-5.65 1.98-2.28 0-4.1-.7-5.47-2.12-1.35-1.42-2.02-3.41-2.02-5.98 0-2.45.7-4.74 2.13-6.88 1.44-2.13 3.64-3.86 6.62-5.18C66.29.82 70.09.16 74.72.16c4.59 0 8.34.64 11.27 1.9 2.93 1.28 5.09 3.04 6.48 5.3a14 14 0 0 1 2.12 7.67c0 2.54-.72 4.9-2.16 7.05-1.44 2.16-3.68 4.24-6.73 6.23a74.43 74.43 0 0 1-11.66 5.94l-13.32 5.58Zm-7.27 5.69c0-2.83 1.1-5.09 3.3-6.77 2.22-1.7 5.42-2.55 9.62-2.55 1.9 0 3.68.12 5.36.36 1.68.21 3.33.46 4.94.75 1.6.29 3.25.55 4.93.8 1.68.21 3.45.32 5.33.32 1.6 0 2.9-.3 3.88-.9 1.01-.63 1.92-1.6 2.74-2.92.38-.62.8-1.05 1.22-1.3a2.6 2.6 0 0 1 1.48-.28c.62.05 1.1.35 1.4.9.34.53.46 1.38.36 2.55-.3 4.08-1.03 7.37-2.16 9.87-1.12 2.47-2.62 4.27-4.5 5.4a12.33 12.33 0 0 1-6.55 1.69c-2.01 0-3.78-.29-5.3-.86a9.07 9.07 0 0 1-3.84-2.78 17.3 17.3 0 0 1-2.74-5.25 6.83 6.83 0 0 0-1.08-2.3 1.58 1.58 0 0 0-1.26-.55c-.57 0-1.05.28-1.44.83-.38.53-.63 1.4-.75 2.63-.17 2.04-.6 3.67-1.3 4.9a6.1 6.1 0 0 1-2.8 2.59c-1.16.53-2.54.79-4.15.79a6.2 6.2 0 0 1-4.82-2.12c-1.25-1.44-1.87-3.38-1.87-5.8Z" fill="#FDD6BA"/></svg>