<svg width="95" height="54" fill="none" xmlns="http://www.w3.org/2000/svg"><path d="M24.98.16c5.09 0 9.4 1.03 12.96 3.1a19.8 19.8 0 0 1 8.1 9.07c1.87 3.98 2.8 8.84 2.8 14.58 0 5.4-1 10.09-3.01 14.07a22 22 0 0 1-8.46 9.22c-3.63 2.16-7.91 3.24-12.86 3.24-5.06 0-9.38-1.03-12.96-3.1a20.01 20.01 0 0 1-8.13-9.07C1.57 37.3.65 32.43.65 26.7c0-5.4 1-10.08 2.98-14.04a21.95 21.95 0 0 1 8.5-9.21C15.78 1.25 20.06.16 24.98.16Zm6.88 28.44c0-5.9-.28-10.62-.83-14.15-.53-3.53-1.34-6.07-2.45-7.63-1.08-1.56-2.46-2.34-4.14-2.34-1.53 0-2.8.68-3.81 2.05-1.01 1.35-1.77 3.53-2.27 6.55-.48 3-.72 6.98-.72 11.92 0 5.9.26 10.62.79 14.15.55 3.53 1.37 6.07 2.45 7.63 1.1 1.56 2.5 2.34 4.17 2.34a4.6 4.6 0 0 0 3.82-2.02c1-1.36 1.75-3.55 2.23-6.55.5-3.02.76-7 .76-11.95Zm40.39-2.74-1.23-1.18c.48-.15 1-.27 1.55-.36.55-.1 1.14-.17 1.77-.22a23.83 23.83 0 0 1 11.02 1.48c2.58 1.05 4.6 2.56 6.04 4.53a11.28 11.28 0 0 1 2.2 6.99c0 3.3-.86 6.19-2.56 8.64a16.24 16.24 0 0 1-7.24 5.68c-3.12 1.35-6.85 2.02-11.2 2.02-4.2 0-7.68-.5-10.47-1.51-2.78-1.01-4.87-2.4-6.26-4.18a9.7 9.7 0 0 1-2.05-6.08 7.7 7.7 0 0 1 7.88-7.88c2.42 0 4.24.63 5.44 1.9a6.84 6.84 0 0 1 1.83 5v3.86c0 1.39.3 2.58.9 3.56.63.99 1.5 1.48 2.63 1.48a4.3 4.3 0 0 0 2.88-1.01c.8-.7 1.4-1.79 1.84-3.28.43-1.5.64-3.49.64-5.94 0-3.64-.57-6.25-1.72-7.8a5.46 5.46 0 0 0-4.69-2.35h-2.59c-.98 0-1.71-.21-2.2-.65a2.5 2.5 0 0 1-.71-1.9c0-.63.13-1.18.4-1.66.28-.48.79-1.03 1.5-1.66L83.89 9.41l.43 4.47H65.23c-1.01 0-1.8.18-2.34.54-.55.33-.93.9-1.12 1.69l-.72 2.84c-.17.7-.5 1.26-.97 1.7-.46.4-1.13.6-2.02.6-.86 0-1.57-.22-2.12-.68-.55-.48-.78-1.2-.68-2.16l1.3-13.46A3.4 3.4 0 0 1 57.8 2.5c.74-.6 1.74-.9 2.99-.9h29.27c1.46 0 2.5.18 3.13.54.62.36.94.94.94 1.73 0 .53-.2 1.13-.62 1.8-.38.67-1.2 1.6-2.48 2.77l-18.8 17.42Z" fill="#FDD6BA"/></svg>